<svg id="svg" version="1.1" xmlns="http://www.w3.org/2000/svg" xmlns:xlink="http://www.w3.org/1999/xlink" width="400" height="400" viewBox="0, 0, 400,400"><g id="svgg"><path id="path0" d="M184.800 28.404 C 181.170 28.555,177.390 28.897,176.400 29.164 C 175.410 29.431,172.980 29.895,171.000 30.195 C 169.020 30.495,166.410 31.024,165.200 31.369 C 163.990 31.715,161.380 32.287,159.400 32.641 C 157.420 32.995,155.616 33.434,155.391 33.616 C 155.166 33.798,153.366 34.346,151.391 34.833 C 149.416 35.320,147.350 35.938,146.800 36.206 C 146.250 36.473,144.810 36.920,143.600 37.197 C 142.390 37.475,141.130 37.917,140.800 38.180 C 140.470 38.443,139.390 38.902,138.400 39.201 C 137.410 39.500,135.880 40.062,135.000 40.449 C 134.120 40.837,132.462 41.453,131.315 41.818 C 130.168 42.184,129.021 42.734,128.766 43.041 C 128.511 43.349,128.057 43.600,127.758 43.600 C 127.118 43.600,116.382 49.068,113.200 51.014 C 111.990 51.754,110.331 52.729,109.514 53.181 C 108.697 53.632,106.575 54.992,104.799 56.201 C 103.022 57.410,101.482 58.400,101.376 58.400 C 101.270 58.400,100.062 59.264,98.691 60.321 C 97.321 61.378,95.750 62.554,95.200 62.934 C 92.631 64.713,91.298 65.759,89.548 67.371 C 88.506 68.330,87.478 69.179,87.262 69.258 C 87.047 69.336,85.352 70.840,83.496 72.600 C 81.640 74.360,79.330 76.531,78.361 77.424 C 76.774 78.887,70.859 85.351,66.303 90.600 C 62.792 94.646,57.569 101.667,56.394 103.922 C 55.940 104.792,55.216 105.823,54.785 106.214 C 54.353 106.604,54.000 107.138,54.000 107.400 C 54.000 107.662,53.656 108.187,53.237 108.567 C 52.817 108.947,52.248 109.830,51.972 110.529 C 51.696 111.228,51.148 112.162,50.754 112.605 C 50.360 113.048,49.752 114.038,49.403 114.805 C 49.054 115.572,48.165 117.280,47.427 118.600 C 44.719 123.449,40.400 132.416,40.400 133.188 C 40.400 133.429,39.972 134.476,39.449 135.513 C 38.926 136.551,38.373 137.981,38.219 138.691 C 38.066 139.401,37.509 140.834,36.982 141.875 C 36.455 142.916,35.902 144.582,35.752 145.578 C 35.603 146.573,35.176 147.930,34.804 148.594 C 34.431 149.257,33.992 150.520,33.828 151.400 C 33.665 152.280,33.112 154.200,32.601 155.667 C 32.090 157.134,31.471 159.631,31.225 161.216 C 30.979 162.802,30.441 165.382,30.030 166.950 C 29.618 168.517,29.055 171.420,28.779 173.400 C 28.502 175.380,28.138 177.181,27.971 177.401 C 26.379 179.496,26.408 224.000,28.001 224.000 C 28.156 224.000,28.506 225.665,28.776 227.700 C 29.047 229.735,29.694 233.200,30.214 235.400 C 30.734 237.600,31.282 240.120,31.433 241.000 C 31.584 241.880,32.030 243.500,32.424 244.600 C 32.818 245.700,33.355 247.680,33.617 249.000 C 33.878 250.320,34.407 252.030,34.792 252.800 C 35.177 253.570,35.720 255.190,36.000 256.400 C 36.280 257.610,36.844 259.268,37.254 260.084 C 37.664 260.900,38.000 261.767,38.000 262.009 C 38.000 262.252,38.531 263.564,39.179 264.925 C 39.828 266.286,40.486 267.928,40.641 268.574 C 41.086 270.424,48.400 284.702,51.052 288.900 C 51.574 289.725,52.419 291.075,52.930 291.900 C 57.399 299.106,60.811 303.738,68.890 313.567 C 73.019 318.590,87.938 333.200,88.939 333.200 C 89.037 333.200,89.631 333.635,90.259 334.167 C 94.542 337.799,96.775 339.600,96.993 339.600 C 97.132 339.600,98.451 340.446,99.923 341.480 C 104.464 344.668,107.764 346.864,108.600 347.255 C 109.040 347.460,110.390 348.244,111.600 348.995 C 112.810 349.747,114.822 350.907,116.071 351.572 C 117.320 352.238,118.455 352.966,118.594 353.191 C 118.733 353.416,119.152 353.603,119.524 353.607 C 119.896 353.611,120.992 354.151,121.960 354.807 C 122.928 355.463,124.029 356.000,124.406 356.000 C 124.783 356.000,125.550 356.360,126.109 356.800 C 126.669 357.240,127.337 357.600,127.595 357.600 C 127.854 357.600,129.277 358.208,130.759 358.952 C 132.241 359.696,134.071 360.438,134.827 360.601 C 135.582 360.765,137.049 361.326,138.087 361.849 C 139.124 362.372,140.347 362.800,140.803 362.800 C 141.259 362.800,142.300 363.128,143.116 363.528 C 143.932 363.929,145.410 364.481,146.400 364.756 C 147.390 365.030,149.280 365.622,150.600 366.071 C 151.920 366.520,154.170 367.125,155.600 367.415 C 157.030 367.705,158.986 368.225,159.948 368.570 C 160.909 368.916,163.294 369.411,165.248 369.671 C 167.201 369.931,168.800 370.292,168.800 370.472 C 168.800 370.652,169.235 370.800,169.767 370.800 C 170.298 370.800,170.808 371.025,170.900 371.300 C 171.144 372.031,226.929 372.031,227.660 371.300 C 227.935 371.025,228.574 370.800,229.080 370.800 C 229.586 370.800,230.000 370.656,230.000 370.480 C 230.000 370.304,231.516 369.941,233.370 369.673 C 235.223 369.405,237.518 368.909,238.470 368.570 C 239.421 368.232,241.640 367.681,243.400 367.346 C 245.160 367.011,247.140 366.497,247.800 366.203 C 248.460 365.910,251.160 364.997,253.800 364.175 C 256.440 363.353,259.320 362.360,260.200 361.968 C 261.080 361.576,262.610 360.984,263.600 360.653 C 264.590 360.323,266.156 359.680,267.081 359.226 C 268.005 358.772,268.953 358.400,269.187 358.400 C 269.812 358.400,283.920 351.221,285.858 349.916 C 286.770 349.302,287.612 348.800,287.730 348.800 C 288.100 348.800,292.994 345.477,293.133 345.131 C 293.207 344.949,293.441 344.800,293.655 344.800 C 294.249 344.800,301.404 339.894,303.026 338.374 C 303.480 337.948,303.975 337.600,304.125 337.600 C 304.276 337.600,305.614 336.600,307.100 335.379 C 308.585 334.157,310.970 332.196,312.400 331.020 C 317.453 326.865,331.902 311.686,335.723 306.518 C 336.340 305.683,337.784 303.740,338.932 302.200 C 341.720 298.458,344.000 294.963,344.000 294.432 C 344.000 294.194,344.150 294.000,344.332 294.000 C 344.515 294.000,344.915 293.505,345.220 292.900 C 345.526 292.295,346.276 291.144,346.888 290.342 C 347.499 289.541,348.000 288.611,348.000 288.276 C 348.000 287.941,348.161 287.607,348.358 287.533 C 349.243 287.204,360.000 265.614,360.000 264.168 C 360.000 263.827,360.450 262.565,361.000 261.363 C 361.550 260.160,362.000 258.903,362.000 258.568 C 362.000 258.234,362.258 257.460,362.574 256.849 C 362.890 256.239,363.626 254.042,364.209 251.969 C 364.791 249.896,365.409 248.020,365.581 247.800 C 365.754 247.580,366.123 246.140,366.401 244.600 C 366.680 243.060,367.227 240.900,367.616 239.800 C 368.005 238.700,368.440 236.810,368.582 235.600 C 368.725 234.390,369.200 231.690,369.639 229.600 C 370.458 225.701,371.598 216.270,371.599 213.380 C 371.600 212.489,371.811 211.549,372.070 211.290 C 372.672 210.688,372.694 189.232,372.092 188.851 C 371.710 188.609,371.428 186.352,370.986 180.000 C 370.781 177.056,370.289 174.180,369.582 171.800 C 369.387 171.140,369.051 169.070,368.837 167.200 C 368.623 165.330,368.093 162.630,367.659 161.200 C 367.225 159.770,366.748 157.970,366.599 157.200 C 366.214 155.201,363.663 146.931,362.775 144.800 C 362.362 143.810,361.822 142.190,361.573 141.200 C 361.325 140.210,360.961 139.204,360.764 138.963 C 360.568 138.723,360.040 137.379,359.592 135.976 C 359.144 134.573,358.540 133.059,358.249 132.613 C 357.959 132.166,357.488 131.080,357.202 130.200 C 356.917 129.320,356.350 128.171,355.942 127.646 C 355.534 127.121,355.200 126.426,355.200 126.101 C 355.200 125.428,353.556 122.269,353.100 122.067 C 352.935 121.993,352.800 121.627,352.800 121.253 C 352.800 120.879,352.215 119.642,351.500 118.505 C 350.785 117.367,349.660 115.517,349.000 114.392 C 347.314 111.518,344.069 106.286,342.804 104.400 C 340.584 101.091,338.113 97.613,337.119 96.400 C 336.488 95.630,334.155 92.750,331.935 90.000 C 328.355 85.564,315.012 71.600,314.355 71.600 C 314.215 71.600,313.313 70.866,312.351 69.968 C 310.760 68.485,304.335 63.432,302.251 62.025 C 301.783 61.709,300.950 61.060,300.400 60.584 C 299.850 60.107,299.130 59.601,298.800 59.459 C 298.470 59.316,297.390 58.571,296.400 57.802 C 295.410 57.032,294.209 56.232,293.731 56.023 C 293.253 55.814,291.972 55.004,290.883 54.222 C 289.795 53.440,288.778 52.800,288.624 52.800 C 288.470 52.800,287.592 52.297,286.672 51.681 C 285.752 51.066,283.830 49.958,282.400 49.220 C 280.970 48.481,279.322 47.544,278.738 47.138 C 278.154 46.732,277.414 46.400,277.092 46.400 C 276.771 46.400,276.077 46.085,275.551 45.700 C 274.175 44.693,272.878 44.000,272.371 44.000 C 272.129 44.000,270.822 43.484,269.466 42.853 C 263.563 40.107,262.338 39.600,261.600 39.600 C 261.170 39.600,259.869 39.165,258.709 38.633 C 256.358 37.555,251.549 35.902,247.600 34.815 C 240.419 32.839,238.570 32.400,237.416 32.400 C 236.725 32.400,235.989 32.249,235.780 32.064 C 235.327 31.665,232.396 31.010,227.200 30.149 C 221.289 29.169,221.013 29.110,220.792 28.769 C 220.511 28.338,193.065 28.059,184.800 28.404 M256.322 151.862 C 256.390 152.332,256.795 153.033,257.222 153.420 C 257.650 153.807,258.000 154.366,258.000 154.662 C 258.000 154.958,258.258 155.200,258.573 155.200 C 258.888 155.200,259.260 155.560,259.400 156.000 C 259.540 156.440,259.884 156.800,260.166 156.800 C 260.447 156.800,260.840 157.156,261.039 157.590 C 261.237 158.025,263.335 160.335,265.700 162.723 C 268.065 165.112,270.000 167.195,270.000 167.352 C 270.000 167.741,272.033 169.600,272.458 169.600 C 272.646 169.600,272.800 169.832,272.800 170.115 C 272.800 170.398,273.700 171.517,274.800 172.600 C 275.900 173.683,276.800 174.802,276.800 175.085 C 276.800 175.368,277.025 175.603,277.300 175.607 C 277.575 175.611,278.188 176.169,278.662 176.847 C 279.136 177.526,281.341 179.934,283.562 182.199 C 285.783 184.465,287.600 186.437,287.600 186.583 C 287.600 186.730,289.265 188.559,291.300 190.649 C 293.335 192.739,295.163 194.798,295.361 195.224 C 295.560 195.651,295.896 196.000,296.108 196.000 C 296.537 196.000,298.784 198.426,298.794 198.900 C 298.797 199.065,299.070 199.200,299.400 199.200 C 299.730 199.200,300.000 199.391,300.000 199.624 C 300.000 199.857,300.900 201.000,302.000 202.163 C 303.100 203.326,304.000 204.485,304.000 204.739 C 304.000 204.992,304.276 205.200,304.613 205.200 C 304.949 205.200,305.341 205.515,305.482 205.900 C 305.623 206.285,307.192 208.080,308.969 209.890 C 310.746 211.699,313.640 214.735,315.400 216.637 C 317.160 218.539,319.725 221.271,321.100 222.709 C 322.475 224.147,323.600 225.477,323.600 225.664 C 323.600 225.852,325.265 227.655,327.300 229.671 C 329.335 231.686,331.411 233.890,331.914 234.568 C 332.416 235.246,334.801 237.816,337.214 240.281 C 339.626 242.746,341.600 244.997,341.600 245.285 C 341.600 245.572,341.960 246.032,342.400 246.307 C 343.537 247.017,343.421 248.000,342.200 248.000 C 341.650 248.000,341.200 247.865,341.200 247.699 C 341.200 247.534,340.122 246.890,338.804 246.267 C 337.486 245.645,336.313 244.983,336.197 244.796 C 336.082 244.609,333.695 243.345,330.894 241.987 C 328.092 240.629,324.360 238.813,322.600 237.952 C 320.840 237.091,319.158 236.390,318.862 236.393 C 318.566 236.397,317.828 236.047,317.222 235.616 C 316.616 235.184,315.331 234.654,314.367 234.437 C 313.403 234.221,312.551 233.854,312.474 233.622 C 312.397 233.390,311.994 233.200,311.579 233.200 C 311.164 233.200,310.206 232.853,309.450 232.428 C 308.695 232.004,307.976 231.757,307.854 231.880 C 307.731 232.002,306.777 231.701,305.733 231.210 C 304.689 230.720,302.610 229.997,301.112 229.603 C 299.614 229.210,298.166 228.713,297.894 228.499 C 297.622 228.285,296.050 227.804,294.400 227.431 C 292.750 227.058,291.087 226.583,290.705 226.376 C 290.323 226.169,289.659 226.000,289.229 226.000 C 288.799 226.000,288.336 225.820,288.200 225.600 C 288.064 225.380,287.211 225.200,286.305 225.200 C 284.778 225.200,282.951 224.771,281.000 223.954 C 280.560 223.770,279.285 223.554,278.167 223.475 C 277.049 223.395,275.969 223.230,275.767 223.108 C 275.565 222.985,273.170 222.762,270.444 222.611 C 267.718 222.461,265.087 222.185,264.598 221.999 C 262.667 221.265,238.061 222.204,235.600 223.106 C 235.270 223.227,234.101 223.396,233.002 223.481 C 231.902 223.567,230.831 223.809,230.622 224.018 C 230.412 224.228,229.837 224.400,229.344 224.400 C 228.851 224.400,228.331 224.589,228.188 224.819 C 228.009 225.110,227.766 225.104,227.400 224.800 C 227.034 224.496,226.791 224.490,226.612 224.781 C 226.469 225.011,225.744 225.200,225.000 225.200 C 224.256 225.200,223.534 225.383,223.396 225.607 C 223.258 225.830,222.975 225.908,222.767 225.780 C 222.560 225.651,221.871 225.805,221.237 226.121 C 220.604 226.438,218.851 226.930,217.343 227.216 C 215.834 227.502,214.429 227.886,214.220 228.068 C 214.011 228.251,213.426 228.400,212.920 228.400 C 212.414 228.400,212.000 228.580,212.000 228.800 C 212.000 229.020,211.471 229.200,210.824 229.200 C 210.177 229.200,209.536 229.380,209.400 229.600 C 209.264 229.820,208.801 230.000,208.372 230.000 C 207.943 230.000,206.828 230.345,205.896 230.766 C 204.963 231.188,203.480 231.756,202.600 232.028 C 201.720 232.301,200.082 232.946,198.960 233.462 C 197.838 233.978,196.757 234.400,196.557 234.400 C 196.357 234.400,195.385 234.825,194.397 235.345 C 193.409 235.866,191.945 236.503,191.145 236.762 C 190.344 237.021,188.454 237.855,186.945 238.615 C 185.435 239.375,184.003 239.998,183.762 239.999 C 183.521 239.999,182.998 240.360,182.600 240.800 C 182.202 241.240,181.580 241.600,181.218 241.600 C 180.373 241.600,178.407 242.508,178.403 242.900 C 178.401 243.065,178.158 243.200,177.861 243.200 C 177.181 243.200,174.890 244.331,174.591 244.815 C 174.467 245.015,173.699 245.485,172.883 245.860 C 172.067 246.235,170.906 246.881,170.303 247.296 C 169.699 247.711,169.024 247.939,168.803 247.802 C 168.297 247.489,168.270 246.000,168.771 246.000 C 168.975 246.000,169.200 245.744,169.271 245.432 C 169.342 245.119,171.020 243.180,173.000 241.122 C 174.980 239.065,177.560 236.306,178.734 234.991 C 179.907 233.676,182.472 230.937,184.434 228.905 C 186.395 226.872,188.000 225.117,188.000 225.005 C 188.000 224.892,188.315 224.471,188.700 224.068 C 193.042 219.530,194.800 217.554,194.800 217.211 C 194.800 216.985,195.042 216.800,195.339 216.800 C 195.635 216.800,196.040 216.451,196.239 216.025 C 196.437 215.599,198.535 213.264,200.900 210.836 C 203.265 208.408,205.200 206.327,205.200 206.211 C 205.200 206.095,205.875 205.311,206.700 204.469 C 211.143 199.935,215.200 195.616,215.200 195.421 C 215.200 195.300,215.515 194.871,215.900 194.468 C 220.242 189.930,222.000 187.954,222.000 187.611 C 222.000 187.385,222.193 187.200,222.429 187.200 C 222.923 187.200,223.796 186.398,224.036 185.724 C 224.126 185.470,226.090 183.324,228.400 180.956 C 230.710 178.587,232.892 176.219,233.249 175.693 C 233.606 175.166,235.870 172.725,238.279 170.268 C 240.689 167.811,242.776 165.485,242.918 165.100 C 243.059 164.715,243.437 164.400,243.758 164.400 C 244.079 164.400,244.400 164.143,244.471 163.828 C 244.542 163.514,246.265 161.545,248.300 159.453 C 250.335 157.361,252.000 155.486,252.000 155.287 C 252.000 155.087,252.375 154.585,252.833 154.170 C 253.291 153.755,253.918 152.814,254.225 152.077 C 254.859 150.561,256.117 150.432,256.322 151.862 M59.339 156.100 C 61.065 157.035,63.854 158.556,65.538 159.479 C 67.222 160.403,68.817 161.168,69.082 161.179 C 69.347 161.191,70.228 161.650,71.038 162.200 C 71.849 162.750,72.821 163.200,73.200 163.200 C 73.579 163.200,74.498 163.610,75.244 164.110 C 75.990 164.611,77.410 165.273,78.400 165.581 C 79.390 165.890,80.470 166.366,80.800 166.639 C 81.130 166.912,82.570 167.535,84.000 168.023 C 85.430 168.511,87.268 169.245,88.084 169.655 C 88.900 170.065,89.800 170.401,90.084 170.402 C 90.368 170.404,91.137 170.685,91.792 171.027 C 92.448 171.369,94.158 171.991,95.592 172.409 C 97.027 172.827,99.280 173.529,100.600 173.968 C 101.920 174.407,103.810 174.975,104.800 175.229 C 105.790 175.483,106.960 175.826,107.400 175.990 C 109.670 176.838,111.198 177.200,112.514 177.200 C 113.316 177.200,114.743 177.448,115.686 177.752 C 117.849 178.449,121.552 179.143,124.400 179.386 C 125.610 179.489,128.130 179.786,130.000 180.045 C 134.169 180.622,151.125 180.887,153.600 180.414 C 154.590 180.224,157.020 179.868,159.000 179.623 C 166.356 178.711,169.020 178.283,169.783 177.888 C 170.214 177.665,171.948 177.343,173.635 177.173 C 175.323 177.003,177.490 176.506,178.452 176.069 C 179.413 175.632,181.243 175.082,182.518 174.848 C 183.793 174.613,185.413 174.172,186.118 173.869 C 186.823 173.565,188.660 172.918,190.200 172.431 C 191.740 171.943,193.763 171.197,194.696 170.772 C 195.628 170.347,196.713 170.000,197.106 170.000 C 197.499 170.000,198.896 169.466,200.210 168.813 C 201.525 168.159,202.891 167.619,203.246 167.613 C 203.601 167.606,204.350 167.240,204.909 166.800 C 205.469 166.360,206.134 166.000,206.388 166.000 C 206.923 166.000,214.104 162.755,216.000 161.657 C 216.330 161.465,218.040 160.631,219.800 159.802 C 221.560 158.973,223.270 158.074,223.600 157.805 C 224.611 156.979,229.639 154.400,230.237 154.400 C 231.574 154.400,230.535 156.072,226.757 160.000 C 224.535 162.310,222.266 164.740,221.715 165.400 C 221.163 166.060,219.291 168.086,217.556 169.902 C 215.820 171.718,214.400 173.279,214.400 173.371 C 214.400 173.463,213.905 174.052,213.300 174.679 C 212.695 175.306,210.220 177.970,207.800 180.599 C 205.380 183.228,201.854 187.004,199.964 188.990 C 198.074 190.975,195.914 193.319,195.164 194.199 C 194.414 195.078,192.315 197.340,190.500 199.225 C 188.685 201.110,187.200 202.800,187.200 202.980 C 187.200 203.161,186.795 203.702,186.300 204.183 C 184.789 205.652,178.708 212.088,176.830 214.205 C 175.857 215.302,173.202 218.132,170.930 220.494 C 168.659 222.856,166.800 224.890,166.800 225.015 C 166.800 225.140,165.289 226.808,163.443 228.721 C 161.596 230.635,159.416 233.010,158.597 234.000 C 157.778 234.990,155.194 237.792,152.854 240.227 C 150.514 242.661,147.553 245.856,146.274 247.327 C 143.149 250.919,142.856 250.887,138.928 246.535 C 137.207 244.629,134.360 241.507,132.600 239.598 C 130.840 237.688,126.610 233.094,123.200 229.389 C 119.790 225.685,115.290 220.832,113.200 218.605 C 109.062 214.197,103.793 208.428,101.348 205.627 C 100.497 204.652,98.090 202.038,96.000 199.819 C 93.910 197.600,91.403 194.888,90.429 193.792 C 89.455 192.696,87.115 190.176,85.229 188.191 C 83.343 186.206,79.730 182.269,77.200 179.444 C 74.670 176.618,72.060 173.737,71.400 173.041 C 70.740 172.346,67.860 169.268,65.000 166.201 C 62.140 163.135,59.440 160.243,59.000 159.774 C 53.607 154.031,53.698 153.044,59.339 156.100 " stroke="none" fill="#44bc9c" fill-rule="evenodd"></path><path id="path1" d="M254.225 152.077 C 253.918 152.814,253.291 153.755,252.833 154.170 C 252.375 154.585,252.000 155.087,252.000 155.287 C 252.000 155.486,250.335 157.361,248.300 159.453 C 246.265 161.545,244.542 163.514,244.471 163.828 C 244.400 164.143,244.079 164.400,243.758 164.400 C 243.437 164.400,243.059 164.715,242.918 165.100 C 242.776 165.485,240.689 167.811,238.279 170.268 C 235.870 172.725,233.606 175.166,233.249 175.693 C 232.892 176.219,230.710 178.587,228.400 180.956 C 226.090 183.324,224.126 185.470,224.036 185.724 C 223.796 186.398,222.923 187.200,222.429 187.200 C 222.193 187.200,222.000 187.385,222.000 187.611 C 222.000 187.954,220.242 189.930,215.900 194.468 C 215.515 194.871,215.200 195.300,215.200 195.421 C 215.200 195.616,211.143 199.935,206.700 204.469 C 205.875 205.311,205.200 206.095,205.200 206.211 C 205.200 206.327,203.265 208.408,200.900 210.836 C 198.535 213.264,196.437 215.599,196.239 216.025 C 196.040 216.451,195.635 216.800,195.339 216.800 C 195.042 216.800,194.800 216.985,194.800 217.211 C 194.800 217.554,193.042 219.530,188.700 224.068 C 188.315 224.471,188.000 224.892,188.000 225.005 C 188.000 225.117,186.395 226.872,184.434 228.905 C 182.472 230.937,179.907 233.676,178.734 234.991 C 177.560 236.306,174.980 239.065,173.000 241.122 C 171.020 243.180,169.342 245.119,169.271 245.432 C 169.200 245.744,168.975 246.000,168.771 246.000 C 168.270 246.000,168.297 247.489,168.803 247.802 C 169.024 247.939,169.699 247.711,170.303 247.296 C 170.906 246.881,172.067 246.235,172.883 245.860 C 173.699 245.485,174.467 245.015,174.591 244.815 C 174.890 244.331,177.181 243.200,177.861 243.200 C 178.158 243.200,178.401 243.065,178.403 242.900 C 178.407 242.508,180.373 241.600,181.218 241.600 C 181.580 241.600,182.202 241.240,182.600 240.800 C 182.998 240.360,183.521 239.999,183.762 239.999 C 184.003 239.998,185.435 239.375,186.945 238.615 C 188.454 237.855,190.344 237.021,191.145 236.762 C 191.945 236.503,193.409 235.866,194.397 235.345 C 195.385 234.825,196.357 234.400,196.557 234.400 C 196.757 234.400,197.838 233.978,198.960 233.462 C 200.082 232.946,201.720 232.301,202.600 232.028 C 203.480 231.756,204.963 231.188,205.896 230.766 C 206.828 230.345,207.943 230.000,208.372 230.000 C 208.801 230.000,209.264 229.820,209.400 229.600 C 209.536 229.380,210.177 229.200,210.824 229.200 C 211.471 229.200,212.000 229.020,212.000 228.800 C 212.000 228.580,212.414 228.400,212.920 228.400 C 213.426 228.400,214.011 228.251,214.220 228.068 C 214.429 227.886,215.834 227.502,217.343 227.216 C 218.851 226.930,220.604 226.438,221.237 226.121 C 221.871 225.805,222.560 225.651,222.767 225.780 C 222.975 225.908,223.258 225.830,223.396 225.607 C 223.534 225.383,224.256 225.200,225.000 225.200 C 225.744 225.200,226.469 225.011,226.612 224.781 C 226.791 224.490,227.034 224.496,227.400 224.800 C 227.766 225.104,228.009 225.110,228.188 224.819 C 228.331 224.589,228.851 224.400,229.344 224.400 C 229.837 224.400,230.412 224.228,230.622 224.018 C 230.831 223.809,231.902 223.567,233.002 223.481 C 234.101 223.396,235.270 223.227,235.600 223.106 C 238.061 222.204,262.667 221.265,264.598 221.999 C 265.087 222.185,267.718 222.461,270.444 222.611 C 273.170 222.762,275.565 222.985,275.767 223.108 C 275.969 223.230,277.049 223.395,278.167 223.475 C 279.285 223.554,280.560 223.770,281.000 223.954 C 282.951 224.771,284.778 225.200,286.305 225.200 C 287.211 225.200,288.064 225.380,288.200 225.600 C 288.336 225.820,288.799 226.000,289.229 226.000 C 289.659 226.000,290.323 226.169,290.705 226.376 C 291.087 226.583,292.750 227.058,294.400 227.431 C 296.050 227.804,297.622 228.285,297.894 228.499 C 298.166 228.713,299.614 229.210,301.112 229.603 C 302.610 229.997,304.689 230.720,305.733 231.210 C 306.777 231.701,307.731 232.002,307.854 231.880 C 307.976 231.757,308.695 232.004,309.450 232.428 C 310.206 232.853,311.164 233.200,311.579 233.200 C 311.994 233.200,312.397 233.390,312.474 233.622 C 312.551 233.854,313.403 234.221,314.367 234.437 C 315.331 234.654,316.616 235.184,317.222 235.616 C 317.828 236.047,318.566 236.397,318.862 236.393 C 319.158 236.390,320.840 237.091,322.600 237.952 C 324.360 238.813,328.092 240.629,330.894 241.987 C 333.695 243.345,336.082 244.609,336.197 244.796 C 336.313 244.983,337.486 245.645,338.804 246.267 C 340.122 246.890,341.200 247.534,341.200 247.699 C 341.200 247.865,341.650 248.000,342.200 248.000 C 343.421 248.000,343.537 247.017,342.400 246.307 C 341.960 246.032,341.600 245.572,341.600 245.285 C 341.600 244.997,339.626 242.746,337.214 240.281 C 334.801 237.816,332.416 235.246,331.914 234.568 C 331.411 233.890,329.335 231.686,327.300 229.671 C 325.265 227.655,323.600 225.852,323.600 225.664 C 323.600 225.477,322.475 224.147,321.100 222.709 C 319.725 221.271,317.160 218.539,315.400 216.637 C 313.640 214.735,310.746 211.699,308.969 209.890 C 307.192 208.080,305.623 206.285,305.482 205.900 C 305.341 205.515,304.949 205.200,304.613 205.200 C 304.276 205.200,304.000 204.992,304.000 204.739 C 304.000 204.485,303.100 203.326,302.000 202.163 C 300.900 201.000,300.000 199.857,300.000 199.624 C 300.000 199.391,299.730 199.200,299.400 199.200 C 299.070 199.200,298.797 199.065,298.794 198.900 C 298.784 198.426,296.537 196.000,296.108 196.000 C 295.896 196.000,295.560 195.651,295.361 195.224 C 295.163 194.798,293.335 192.739,291.300 190.649 C 289.265 188.559,287.600 186.730,287.600 186.583 C 287.600 186.437,285.783 184.465,283.562 182.199 C 281.341 179.934,279.136 177.526,278.662 176.847 C 278.188 176.169,277.575 175.611,277.300 175.607 C 277.025 175.603,276.800 175.368,276.800 175.085 C 276.800 174.802,275.900 173.683,274.800 172.600 C 273.700 171.517,272.800 170.398,272.800 170.115 C 272.800 169.832,272.646 169.600,272.458 169.600 C 272.033 169.600,270.000 167.741,270.000 167.352 C 270.000 167.195,268.065 165.112,265.700 162.723 C 263.335 160.335,261.237 158.025,261.039 157.590 C 260.840 157.156,260.447 156.800,260.166 156.800 C 259.884 156.800,259.540 156.440,259.400 156.000 C 259.260 155.560,258.888 155.200,258.573 155.200 C 258.258 155.200,258.000 154.958,258.000 154.662 C 258.000 154.366,257.650 153.807,257.222 153.420 C 256.795 153.033,256.390 152.332,256.322 151.862 C 256.117 150.432,254.859 150.561,254.225 152.077 " stroke="none" fill="#3c464d" fill-rule="evenodd"></path><path id="path2" d="M183.200 26.000 C 183.200 26.776,182.933 26.800,174.200 26.800 C 168.467 26.800,165.200 26.945,165.200 27.200 C 165.200 27.420,164.660 27.600,164.000 27.600 C 163.340 27.600,162.800 27.780,162.800 28.000 C 162.800 28.220,162.480 28.400,162.088 28.400 C 161.697 28.400,161.117 28.760,160.800 29.200 C 160.483 29.640,159.813 30.000,159.312 30.000 C 158.810 30.000,158.400 30.180,158.400 30.400 C 158.400 30.627,157.229 30.800,155.688 30.800 C 153.435 30.800,152.879 30.935,152.400 31.600 C 151.962 32.208,151.365 32.400,149.912 32.400 C 148.860 32.400,148.000 32.580,148.000 32.800 C 148.000 33.020,147.280 33.200,146.400 33.200 C 145.520 33.200,144.800 33.380,144.800 33.600 C 144.800 33.820,144.440 34.000,144.000 34.000 C 143.560 34.000,143.200 34.180,143.200 34.400 C 143.200 34.620,142.570 34.800,141.800 34.800 C 141.030 34.800,140.400 34.980,140.400 35.200 C 140.400 35.420,139.900 35.600,139.288 35.600 C 138.635 35.600,137.939 35.930,137.600 36.400 C 137.283 36.840,136.703 37.200,136.312 37.200 C 135.920 37.200,135.600 37.380,135.600 37.600 C 135.600 37.820,134.740 38.000,133.688 38.000 C 132.235 38.000,131.638 38.192,131.200 38.800 C 130.883 39.240,130.303 39.600,129.912 39.600 C 129.520 39.600,129.200 39.780,129.200 40.000 C 129.200 40.220,128.737 40.400,128.171 40.400 C 127.606 40.400,126.873 40.670,126.543 41.000 C 126.213 41.330,125.442 41.600,124.831 41.600 C 124.141 41.600,123.242 42.056,122.463 42.800 C 121.619 43.607,120.800 44.000,119.964 44.000 C 119.099 44.000,118.380 44.365,117.600 45.200 C 116.983 45.860,116.191 46.400,115.840 46.400 C 115.488 46.400,115.200 46.580,115.200 46.800 C 115.200 47.020,114.732 47.200,114.160 47.200 C 113.521 47.200,112.689 47.662,112.000 48.400 C 111.325 49.122,110.476 49.600,109.866 49.600 C 109.205 49.600,108.766 49.878,108.600 50.400 C 108.460 50.840,108.070 51.200,107.734 51.200 C 107.397 51.200,106.617 51.740,106.000 52.400 C 105.383 53.060,104.483 53.600,104.000 53.600 C 103.517 53.600,102.617 54.140,102.000 54.800 C 101.383 55.460,100.663 56.000,100.400 56.000 C 100.137 56.000,99.438 56.517,98.848 57.149 C 98.257 57.781,97.219 58.420,96.541 58.569 C 95.863 58.718,94.931 59.191,94.471 59.620 C 94.010 60.049,93.441 60.400,93.207 60.400 C 92.972 60.400,92.607 60.855,92.396 61.410 C 92.185 61.966,91.694 62.541,91.306 62.688 C 90.918 62.835,89.939 63.640,89.131 64.478 C 88.324 65.315,87.457 66.000,87.205 66.000 C 86.954 66.000,85.871 66.900,84.800 68.000 C 83.729 69.100,82.650 70.000,82.404 70.000 C 81.825 70.000,68.400 83.434,68.400 84.014 C 68.400 84.255,67.500 85.329,66.400 86.400 C 65.300 87.471,64.396 88.585,64.391 88.874 C 64.386 89.163,63.666 90.019,62.791 90.776 C 61.916 91.533,61.200 92.300,61.200 92.480 C 61.200 92.660,60.660 93.372,60.000 94.063 C 59.340 94.754,58.800 95.562,58.800 95.859 C 58.800 96.157,58.530 96.400,58.200 96.400 C 57.867 96.400,57.600 96.756,57.600 97.200 C 57.600 97.640,57.420 98.000,57.200 98.000 C 56.980 98.000,56.800 98.288,56.800 98.640 C 56.800 98.991,56.260 99.783,55.600 100.400 C 54.940 101.017,54.400 101.769,54.400 102.072 C 54.400 102.375,54.040 102.883,53.600 103.200 C 53.160 103.517,52.800 104.097,52.800 104.488 C 52.800 104.880,52.620 105.200,52.400 105.200 C 52.180 105.200,52.000 105.488,52.000 105.840 C 52.000 106.191,51.460 106.983,50.800 107.600 C 50.140 108.217,49.600 108.919,49.600 109.160 C 49.600 109.402,49.420 109.600,49.200 109.600 C 48.980 109.600,48.800 109.920,48.800 110.312 C 48.800 110.703,48.440 111.283,48.000 111.600 C 47.560 111.917,47.200 112.497,47.200 112.888 C 47.200 113.280,47.020 113.600,46.800 113.600 C 46.580 113.600,46.400 113.960,46.400 114.400 C 46.400 114.840,46.220 115.200,46.000 115.200 C 45.780 115.200,45.600 115.560,45.600 116.000 C 45.600 116.440,45.420 116.800,45.200 116.800 C 44.980 116.800,44.800 117.120,44.800 117.512 C 44.800 117.903,44.440 118.483,44.000 118.800 C 43.530 119.139,43.200 119.835,43.200 120.488 C 43.200 121.100,43.020 121.600,42.800 121.600 C 42.580 121.600,42.400 121.938,42.400 122.351 C 42.400 122.764,42.130 123.326,41.800 123.600 C 41.470 123.874,41.200 124.346,41.200 124.649 C 41.200 124.952,41.020 125.200,40.800 125.200 C 40.580 125.200,40.400 125.700,40.400 126.312 C 40.400 126.965,40.070 127.661,39.600 128.000 C 39.043 128.402,38.800 129.035,38.800 130.088 C 38.800 130.920,38.620 131.600,38.400 131.600 C 38.180 131.600,38.000 131.920,38.000 132.312 C 38.000 132.703,37.640 133.283,37.200 133.600 C 36.610 134.026,36.400 134.635,36.400 135.928 C 36.400 137.358,36.180 137.885,35.200 138.800 C 34.184 139.749,34.000 140.220,34.000 141.872 C 34.000 143.365,33.812 143.959,33.200 144.400 C 32.760 144.717,32.400 145.297,32.400 145.688 C 32.400 146.080,32.220 146.400,32.000 146.400 C 31.778 146.400,31.600 147.467,31.600 148.800 C 31.600 150.133,31.422 151.200,31.200 151.200 C 30.980 151.200,30.800 151.560,30.800 152.000 C 30.800 152.440,30.620 152.800,30.400 152.800 C 30.180 152.800,30.000 153.340,30.000 154.000 C 30.000 154.660,29.820 155.200,29.600 155.200 C 29.374 155.200,29.200 156.333,29.200 157.800 C 29.200 159.267,29.026 160.400,28.800 160.400 C 28.580 160.400,28.400 160.760,28.400 161.200 C 28.400 161.640,28.220 162.000,28.000 162.000 C 27.780 162.000,27.600 162.360,27.600 162.800 C 27.600 163.240,27.420 163.600,27.200 163.600 C 26.980 163.600,26.800 163.960,26.800 164.400 C 26.800 164.840,26.620 165.200,26.400 165.200 C 26.151 165.200,26.000 167.525,26.000 171.376 C 26.000 175.063,25.839 177.652,25.600 177.800 C 25.050 178.140,25.050 223.460,25.600 223.800 C 25.839 223.948,26.000 226.537,26.000 230.224 C 26.000 234.075,26.151 236.400,26.400 236.400 C 26.620 236.400,26.800 236.720,26.800 237.112 C 26.800 237.503,27.160 238.083,27.600 238.400 C 28.040 238.717,28.400 239.297,28.400 239.688 C 28.400 240.080,28.580 240.400,28.800 240.400 C 29.031 240.400,29.200 241.667,29.200 243.400 C 29.200 245.133,29.369 246.400,29.600 246.400 C 29.820 246.400,30.000 246.760,30.000 247.200 C 30.000 247.640,30.180 248.000,30.400 248.000 C 30.620 248.000,30.800 248.360,30.800 248.800 C 30.800 249.240,30.980 249.600,31.200 249.600 C 31.422 249.600,31.600 250.667,31.600 252.000 C 31.600 253.333,31.778 254.400,32.000 254.400 C 32.220 254.400,32.400 254.760,32.400 255.200 C 32.400 255.640,32.580 256.000,32.800 256.000 C 33.020 256.000,33.200 256.360,33.200 256.800 C 33.200 257.240,33.380 257.600,33.600 257.600 C 33.820 257.600,34.000 258.370,34.000 259.312 C 34.000 260.565,34.214 261.178,34.800 261.600 C 35.240 261.917,35.600 262.497,35.600 262.888 C 35.600 263.280,35.780 263.600,36.000 263.600 C 36.220 263.600,36.400 264.500,36.400 265.600 C 36.400 267.333,36.507 267.600,37.200 267.600 C 37.822 267.600,38.000 267.867,38.000 268.800 C 38.000 269.460,38.180 270.000,38.400 270.000 C 38.620 270.000,38.800 270.540,38.800 271.200 C 38.800 271.860,38.980 272.400,39.200 272.400 C 39.420 272.400,39.600 272.760,39.600 273.200 C 39.600 273.640,39.780 274.000,40.000 274.000 C 40.220 274.000,40.400 274.270,40.400 274.600 C 40.400 274.930,40.580 275.200,40.800 275.200 C 41.020 275.200,41.200 275.718,41.200 276.351 C 41.200 276.984,41.470 277.726,41.800 278.000 C 42.130 278.274,42.400 278.836,42.400 279.249 C 42.400 279.662,42.580 280.000,42.800 280.000 C 43.020 280.000,43.200 280.540,43.200 281.200 C 43.200 282.133,43.378 282.400,44.000 282.400 C 44.533 282.400,44.800 282.667,44.800 283.200 C 44.800 283.640,44.980 284.000,45.200 284.000 C 45.420 284.000,45.600 284.500,45.600 285.112 C 45.600 285.765,45.930 286.461,46.400 286.800 C 46.840 287.117,47.200 287.697,47.200 288.088 C 47.200 288.480,47.380 288.800,47.600 288.800 C 47.820 288.800,48.000 289.120,48.000 289.512 C 48.000 289.903,48.360 290.483,48.800 290.800 C 49.240 291.117,49.600 291.607,49.600 291.888 C 49.600 292.170,49.780 292.400,50.000 292.400 C 50.220 292.400,50.400 292.688,50.400 293.040 C 50.400 293.391,50.940 294.183,51.600 294.800 C 52.338 295.489,52.800 296.321,52.800 296.960 C 52.800 297.733,53.005 298.000,53.600 298.000 C 54.133 298.000,54.400 298.267,54.400 298.800 C 54.400 299.240,54.580 299.600,54.800 299.600 C 55.020 299.600,55.200 299.920,55.200 300.312 C 55.200 300.703,55.560 301.283,56.000 301.600 C 56.440 301.917,56.800 302.415,56.800 302.706 C 56.800 302.998,57.250 303.686,57.800 304.236 C 58.350 304.786,58.800 305.473,58.800 305.761 C 58.800 306.050,59.880 307.284,61.200 308.504 C 62.520 309.724,63.600 310.937,63.600 311.200 C 63.600 311.464,64.140 312.183,64.800 312.800 C 65.460 313.417,66.000 314.120,66.000 314.364 C 66.000 314.939,85.053 334.000,85.627 334.000 C 85.867 334.000,86.754 334.720,87.600 335.600 C 88.446 336.480,89.376 337.202,89.669 337.204 C 89.961 337.206,90.625 337.746,91.145 338.404 C 91.665 339.062,92.308 339.600,92.575 339.600 C 92.842 339.600,93.483 340.050,94.000 340.600 C 94.517 341.150,95.268 341.600,95.670 341.600 C 96.133 341.600,96.400 341.892,96.400 342.400 C 96.400 342.933,96.667 343.200,97.200 343.200 C 97.640 343.200,98.000 343.380,98.000 343.600 C 98.000 343.820,98.320 344.000,98.712 344.000 C 99.103 344.000,99.683 344.360,100.000 344.800 C 100.317 345.240,100.897 345.600,101.288 345.600 C 101.680 345.600,102.000 345.780,102.000 346.000 C 102.000 346.220,102.360 346.400,102.800 346.400 C 103.261 346.400,103.600 346.667,103.600 347.029 C 103.600 347.973,104.614 348.800,105.771 348.800 C 106.337 348.800,106.800 348.980,106.800 349.200 C 106.800 349.420,107.148 349.600,107.573 349.600 C 107.998 349.600,108.460 349.960,108.600 350.400 C 108.740 350.840,109.162 351.200,109.539 351.200 C 109.915 351.200,110.483 351.560,110.800 352.000 C 111.117 352.440,111.805 352.800,112.328 352.800 C 112.869 352.800,113.762 353.317,114.400 354.000 C 115.017 354.660,115.809 355.200,116.160 355.200 C 116.512 355.200,116.800 355.380,116.800 355.600 C 116.800 355.820,117.268 356.000,117.840 356.000 C 118.479 356.000,119.311 356.462,120.000 357.200 C 120.836 358.095,121.480 358.400,122.532 358.400 C 123.308 358.400,124.213 358.670,124.543 359.000 C 124.873 359.330,125.516 359.600,125.971 359.600 C 126.427 359.600,126.800 359.780,126.800 360.000 C 126.800 360.220,127.120 360.400,127.512 360.400 C 127.903 360.400,128.483 360.760,128.800 361.200 C 129.238 361.808,129.835 362.000,131.288 362.000 C 132.340 362.000,133.200 362.180,133.200 362.400 C 133.200 362.620,133.520 362.800,133.912 362.800 C 134.303 362.800,134.883 363.160,135.200 363.600 C 135.539 364.070,136.235 364.400,136.888 364.400 C 137.500 364.400,138.000 364.580,138.000 364.800 C 138.000 365.020,138.677 365.200,139.504 365.200 C 140.574 365.200,141.151 365.430,141.507 366.000 C 141.852 366.552,142.440 366.800,143.403 366.800 C 144.172 366.800,144.800 366.980,144.800 367.200 C 144.800 367.420,145.340 367.600,146.000 367.600 C 146.660 367.600,147.200 367.780,147.200 368.000 C 147.200 368.220,147.560 368.400,148.000 368.400 C 148.440 368.400,148.800 368.580,148.800 368.800 C 148.800 369.029,150.000 369.200,151.600 369.200 C 153.200 369.200,154.400 369.371,154.400 369.600 C 154.400 369.820,154.868 370.000,155.440 370.000 C 156.079 370.000,156.911 370.462,157.600 371.200 C 158.217 371.860,159.099 372.400,159.560 372.400 C 160.022 372.400,160.400 372.580,160.400 372.800 C 160.400 373.052,163.067 373.200,167.600 373.200 C 174.533 373.200,174.800 373.230,174.800 374.000 C 174.800 374.791,175.067 374.800,199.237 374.800 C 223.338 374.800,223.678 374.789,223.884 374.000 C 224.084 373.237,224.430 373.200,231.447 373.200 C 236.082 373.200,238.800 373.052,238.800 372.800 C 238.800 372.580,239.160 372.400,239.600 372.400 C 240.040 372.400,240.400 372.220,240.400 372.000 C 240.400 371.780,240.630 371.600,240.912 371.600 C 241.193 371.600,241.683 371.240,242.000 370.800 C 242.339 370.330,243.035 370.000,243.688 370.000 C 244.300 370.000,244.800 369.820,244.800 369.600 C 244.800 369.379,245.837 369.200,247.112 369.200 C 248.965 369.200,249.538 369.041,250.000 368.400 C 250.438 367.792,251.035 367.600,252.488 367.600 C 253.540 367.600,254.400 367.420,254.400 367.200 C 254.400 366.980,254.940 366.800,255.600 366.800 C 256.260 366.800,256.800 366.620,256.800 366.400 C 256.800 366.180,257.160 366.000,257.600 366.000 C 258.040 366.000,258.400 365.820,258.400 365.600 C 258.400 365.380,259.030 365.200,259.800 365.200 C 260.570 365.200,261.200 365.020,261.200 364.800 C 261.200 364.580,261.700 364.400,262.312 364.400 C 262.965 364.400,263.661 364.070,264.000 363.600 C 264.317 363.160,264.897 362.800,265.288 362.800 C 265.680 362.800,266.000 362.620,266.000 362.400 C 266.000 362.180,266.540 362.000,267.200 362.000 C 267.860 362.000,268.400 361.820,268.400 361.600 C 268.400 361.380,268.760 361.200,269.200 361.200 C 269.640 361.200,270.000 361.020,270.000 360.800 C 270.000 360.580,270.360 360.400,270.800 360.400 C 271.240 360.400,271.600 360.220,271.600 360.000 C 271.600 359.780,272.063 359.600,272.629 359.600 C 273.194 359.600,273.927 359.330,274.257 359.000 C 274.587 358.670,275.294 358.400,275.829 358.400 C 276.363 358.400,276.800 358.220,276.800 358.000 C 276.800 357.780,277.120 357.600,277.512 357.600 C 277.903 357.600,278.483 357.240,278.800 356.800 C 279.139 356.330,279.835 356.000,280.488 356.000 C 281.100 356.000,281.600 355.820,281.600 355.600 C 281.600 355.380,281.920 355.200,282.312 355.200 C 282.703 355.200,283.283 354.840,283.600 354.400 C 283.917 353.960,284.497 353.600,284.888 353.600 C 285.280 353.600,285.600 353.420,285.600 353.200 C 285.600 352.980,285.920 352.800,286.312 352.800 C 286.703 352.800,287.283 352.440,287.600 352.000 C 287.917 351.560,288.611 351.200,289.141 351.200 C 290.044 351.200,291.600 349.896,291.600 349.139 C 291.600 348.952,291.920 348.800,292.312 348.800 C 292.703 348.800,293.283 348.440,293.600 348.000 C 293.917 347.560,294.497 347.200,294.888 347.200 C 295.280 347.200,295.600 347.020,295.600 346.800 C 295.600 346.580,296.063 346.400,296.629 346.400 C 297.786 346.400,298.800 345.573,298.800 344.629 C 298.800 344.283,299.088 344.000,299.440 344.000 C 299.791 344.000,300.583 343.460,301.200 342.800 C 301.879 342.073,302.723 341.600,303.342 341.600 C 303.904 341.600,304.814 341.150,305.364 340.600 C 305.914 340.050,306.642 339.600,306.982 339.600 C 307.322 339.600,307.600 339.317,307.600 338.971 C 307.600 338.346,308.507 337.200,309.003 337.200 C 309.146 337.200,309.954 336.480,310.800 335.600 C 311.646 334.720,312.543 334.000,312.795 334.000 C 313.046 334.000,314.129 333.100,315.200 332.000 C 316.271 330.900,317.430 330.000,317.774 330.000 C 318.118 330.000,318.400 329.717,318.400 329.371 C 318.400 328.637,319.339 327.600,320.004 327.600 C 320.598 327.600,327.600 320.609,327.600 320.015 C 327.600 319.768,329.040 318.141,330.800 316.400 C 332.560 314.659,334.000 313.029,334.000 312.778 C 334.000 312.526,334.540 311.817,335.200 311.200 C 335.860 310.583,336.400 309.791,336.400 309.440 C 336.400 309.067,336.734 308.800,337.200 308.800 C 337.640 308.800,338.000 308.602,338.000 308.360 C 338.000 308.119,338.540 307.417,339.200 306.800 C 339.860 306.183,340.400 305.474,340.400 305.223 C 340.400 304.749,340.778 304.227,342.300 302.599 C 342.795 302.070,343.200 301.178,343.200 300.618 C 343.200 299.867,343.410 299.600,344.000 299.600 C 344.533 299.600,344.800 299.333,344.800 298.800 C 344.800 298.360,344.980 298.000,345.200 298.000 C 345.420 298.000,345.600 297.680,345.600 297.288 C 345.600 296.897,345.960 296.317,346.400 296.000 C 346.840 295.683,347.200 295.103,347.200 294.712 C 347.200 294.320,347.380 294.000,347.600 294.000 C 347.820 294.000,348.000 293.706,348.000 293.347 C 348.000 292.690,349.430 291.200,350.061 291.200 C 350.248 291.200,350.400 290.700,350.400 290.088 C 350.400 289.435,350.730 288.739,351.200 288.400 C 351.640 288.083,352.000 287.503,352.000 287.112 C 352.000 286.720,352.180 286.400,352.400 286.400 C 352.620 286.400,352.800 286.080,352.800 285.688 C 352.800 285.297,353.160 284.717,353.600 284.400 C 354.070 284.061,354.400 283.365,354.400 282.712 C 354.400 282.100,354.580 281.600,354.800 281.600 C 355.020 281.600,355.200 281.280,355.200 280.888 C 355.200 280.497,355.560 279.917,356.000 279.600 C 356.440 279.283,356.800 278.703,356.800 278.312 C 356.800 277.920,356.980 277.600,357.200 277.600 C 357.420 277.600,357.600 277.240,357.600 276.800 C 357.600 276.360,357.772 276.000,357.982 276.000 C 358.192 276.000,358.482 275.370,358.626 274.600 C 358.771 273.830,359.049 273.200,359.245 273.200 C 359.440 273.200,359.600 272.700,359.600 272.088 C 359.600 271.435,359.930 270.739,360.400 270.400 C 360.957 269.998,361.200 269.365,361.200 268.312 C 361.200 267.480,361.380 266.800,361.600 266.800 C 361.820 266.800,362.000 266.480,362.000 266.088 C 362.000 265.697,362.360 265.117,362.800 264.800 C 363.435 264.342,363.600 263.765,363.600 262.000 C 363.600 260.235,363.765 259.658,364.400 259.200 C 364.840 258.883,365.200 258.393,365.200 258.112 C 365.200 257.830,365.380 257.600,365.600 257.600 C 365.820 257.600,366.000 256.700,366.000 255.600 C 366.000 254.500,366.180 253.600,366.400 253.600 C 366.620 253.600,366.800 253.240,366.800 252.800 C 366.800 252.360,366.980 252.000,367.200 252.000 C 367.420 252.000,367.600 251.640,367.600 251.200 C 367.600 250.760,367.780 250.400,368.000 250.400 C 368.222 250.400,368.400 249.333,368.400 248.000 C 368.400 246.667,368.578 245.600,368.800 245.600 C 369.020 245.600,369.200 245.060,369.200 244.400 C 369.200 243.740,369.380 243.200,369.600 243.200 C 369.820 243.200,370.000 242.840,370.000 242.400 C 370.000 241.960,370.180 241.600,370.400 241.600 C 370.635 241.600,370.800 240.200,370.800 238.200 C 370.800 236.200,370.965 234.800,371.200 234.800 C 371.420 234.800,371.600 234.440,371.600 234.000 C 371.600 233.560,371.780 233.200,372.000 233.200 C 372.220 233.200,372.400 232.840,372.400 232.400 C 372.400 231.960,372.580 231.600,372.800 231.600 C 373.020 231.600,373.200 231.240,373.200 230.800 C 373.200 230.360,373.380 230.000,373.600 230.000 C 373.863 230.000,374.000 219.867,374.000 200.400 C 374.000 180.933,373.863 170.800,373.600 170.800 C 373.380 170.800,373.200 170.440,373.200 170.000 C 373.200 169.560,373.020 169.200,372.800 169.200 C 372.580 169.200,372.400 168.840,372.400 168.400 C 372.400 167.960,372.220 167.600,372.000 167.600 C 371.780 167.600,371.600 167.240,371.600 166.800 C 371.600 166.360,371.420 166.000,371.200 166.000 C 370.967 166.000,370.800 164.667,370.800 162.800 C 370.800 160.933,370.633 159.600,370.400 159.600 C 370.180 159.600,370.000 159.150,370.000 158.600 C 370.000 158.050,369.820 157.600,369.600 157.600 C 369.380 157.600,369.200 157.240,369.200 156.800 C 369.200 156.360,369.020 156.000,368.800 156.000 C 368.571 156.000,368.400 154.800,368.400 153.200 C 368.400 151.600,368.229 150.400,368.000 150.400 C 367.780 150.400,367.600 150.080,367.600 149.688 C 367.600 149.297,367.240 148.717,366.800 148.400 C 366.159 147.938,366.000 147.365,366.000 145.512 C 366.000 144.237,365.821 143.200,365.600 143.200 C 365.380 143.200,365.200 142.932,365.200 142.603 C 365.200 142.275,364.840 141.782,364.400 141.507 C 363.791 141.127,363.600 140.574,363.600 139.192 C 363.600 137.835,363.398 137.231,362.800 136.800 C 362.330 136.461,362.000 135.765,362.000 135.112 C 362.000 134.500,361.820 134.000,361.600 134.000 C 361.380 134.000,361.200 133.460,361.200 132.800 C 361.200 132.140,361.020 131.600,360.800 131.600 C 360.580 131.600,360.400 131.240,360.400 130.800 C 360.400 130.360,360.220 130.000,360.000 130.000 C 359.780 130.000,359.600 129.640,359.600 129.200 C 359.600 128.760,359.420 128.400,359.200 128.400 C 358.980 128.400,358.800 127.882,358.800 127.249 C 358.800 126.616,358.530 125.874,358.200 125.600 C 357.870 125.326,357.600 124.854,357.600 124.551 C 357.600 124.248,357.420 124.000,357.200 124.000 C 356.980 124.000,356.800 123.500,356.800 122.888 C 356.800 122.235,356.470 121.539,356.000 121.200 C 355.560 120.883,355.200 120.303,355.200 119.912 C 355.200 119.520,355.020 119.200,354.800 119.200 C 354.580 119.200,354.400 118.700,354.400 118.088 C 354.400 117.435,354.070 116.739,353.600 116.400 C 353.160 116.083,352.800 115.503,352.800 115.112 C 352.800 114.720,352.620 114.400,352.400 114.400 C 352.180 114.400,352.000 114.080,352.000 113.688 C 352.000 113.297,351.640 112.717,351.200 112.400 C 350.760 112.083,350.400 111.503,350.400 111.112 C 350.400 110.720,350.220 110.400,350.000 110.400 C 349.780 110.400,349.600 110.052,349.600 109.627 C 349.600 109.202,349.240 108.740,348.800 108.600 C 348.360 108.460,348.000 107.998,348.000 107.573 C 348.000 107.148,347.820 106.800,347.600 106.800 C 347.380 106.800,347.200 106.512,347.200 106.160 C 347.200 105.809,346.660 105.017,346.000 104.400 C 345.340 103.783,344.800 103.031,344.800 102.728 C 344.800 102.425,344.440 101.917,344.000 101.600 C 343.560 101.283,343.200 100.703,343.200 100.312 C 343.200 99.920,343.020 99.600,342.800 99.600 C 342.580 99.600,342.400 99.240,342.400 98.800 C 342.400 98.356,342.133 98.000,341.800 98.000 C 341.467 98.000,341.200 97.644,341.200 97.200 C 341.200 96.760,341.020 96.400,340.800 96.400 C 340.580 96.400,340.400 96.040,340.400 95.600 C 340.400 95.067,340.133 94.800,339.600 94.800 C 339.106 94.800,338.799 94.532,338.796 94.100 C 338.794 93.715,338.254 92.975,337.596 92.455 C 336.938 91.935,336.400 91.336,336.400 91.124 C 336.400 90.911,335.680 90.046,334.800 89.200 C 333.920 88.354,333.200 87.462,333.200 87.217 C 333.200 86.973,331.397 84.981,329.193 82.793 C 326.989 80.604,325.013 78.360,324.803 77.807 C 324.592 77.253,324.179 76.800,323.885 76.800 C 323.591 76.800,321.779 75.270,319.858 73.400 C 317.937 71.530,316.103 70.000,315.782 70.000 C 315.462 70.000,315.200 69.717,315.200 69.371 C 315.200 68.642,314.263 67.600,313.606 67.600 C 313.359 67.600,312.096 66.520,310.800 65.200 C 309.504 63.880,308.254 62.800,308.022 62.800 C 307.790 62.800,307.600 62.620,307.600 62.400 C 307.600 62.180,307.325 62.000,306.989 62.000 C 306.654 62.000,305.569 61.190,304.579 60.200 C 303.589 59.210,302.463 58.400,302.078 58.400 C 301.692 58.400,301.117 58.040,300.800 57.600 C 300.483 57.160,299.903 56.800,299.512 56.800 C 299.120 56.800,298.800 56.620,298.800 56.400 C 298.800 56.180,298.512 56.000,298.160 56.000 C 297.809 56.000,297.017 55.460,296.400 54.800 C 295.783 54.140,295.063 53.600,294.800 53.600 C 294.537 53.600,293.817 53.060,293.200 52.400 C 292.583 51.740,291.773 51.200,291.400 51.200 C 291.027 51.200,290.217 50.660,289.600 50.000 C 288.962 49.317,288.069 48.800,287.528 48.800 C 287.005 48.800,286.317 48.440,286.000 48.000 C 285.683 47.560,285.103 47.200,284.712 47.200 C 284.320 47.200,284.000 47.020,284.000 46.800 C 284.000 46.580,283.680 46.400,283.288 46.400 C 282.897 46.400,282.317 46.040,282.000 45.600 C 281.683 45.160,281.103 44.800,280.712 44.800 C 280.320 44.800,280.000 44.620,280.000 44.400 C 280.000 44.180,279.500 44.000,278.888 44.000 C 278.235 44.000,277.539 43.670,277.200 43.200 C 276.883 42.760,276.314 42.400,275.935 42.400 C 275.557 42.400,275.146 42.236,275.022 42.035 C 274.897 41.834,274.077 41.548,273.198 41.400 C 272.319 41.251,271.600 40.966,271.600 40.765 C 271.600 40.564,271.060 40.400,270.400 40.400 C 269.740 40.400,269.200 40.220,269.200 40.000 C 269.200 39.780,268.840 39.600,268.400 39.600 C 267.960 39.600,267.600 39.420,267.600 39.200 C 267.600 38.980,267.240 38.800,266.800 38.800 C 266.360 38.800,266.000 38.620,266.000 38.400 C 266.000 38.180,265.460 38.000,264.800 38.000 C 264.140 38.000,263.600 37.820,263.600 37.600 C 263.600 37.380,263.100 37.200,262.488 37.200 C 261.835 37.200,261.139 36.870,260.800 36.400 C 260.483 35.960,259.813 35.600,259.312 35.600 C 258.810 35.600,258.400 35.420,258.400 35.200 C 258.400 34.980,257.720 34.800,256.888 34.800 C 255.835 34.800,255.202 34.557,254.800 34.000 C 254.398 33.443,253.765 33.200,252.712 33.200 C 251.880 33.200,251.200 33.020,251.200 32.800 C 251.200 32.580,250.480 32.400,249.600 32.400 C 248.720 32.400,248.000 32.220,248.000 32.000 C 248.000 31.780,247.640 31.600,247.200 31.600 C 246.760 31.600,246.400 31.420,246.400 31.200 C 246.400 30.969,245.133 30.800,243.400 30.800 C 241.667 30.800,240.400 30.631,240.400 30.400 C 240.400 30.180,240.040 30.000,239.600 30.000 C 239.160 30.000,238.800 29.820,238.800 29.600 C 238.800 29.380,238.440 29.200,238.000 29.200 C 237.560 29.200,237.200 29.020,237.200 28.800 C 237.200 28.580,236.840 28.400,236.400 28.400 C 235.960 28.400,235.600 28.220,235.600 28.000 C 235.600 27.780,235.240 27.600,234.800 27.600 C 234.360 27.600,234.000 27.420,234.000 27.200 C 234.000 26.945,230.600 26.800,224.600 26.800 C 215.467 26.800,215.200 26.777,215.200 26.000 C 215.200 25.213,214.933 25.200,199.200 25.200 C 183.467 25.200,183.200 25.213,183.200 26.000 M220.792 28.769 C 221.013 29.110,221.289 29.169,227.200 30.149 C 232.396 31.010,235.327 31.665,235.780 32.064 C 235.989 32.249,236.725 32.400,237.416 32.400 C 238.570 32.400,240.419 32.839,247.600 34.815 C 251.549 35.902,256.358 37.555,258.709 38.633 C 259.869 39.165,261.170 39.600,261.600 39.600 C 262.338 39.600,263.563 40.107,269.466 42.853 C 270.822 43.484,272.129 44.000,272.371 44.000 C 272.878 44.000,274.175 44.693,275.551 45.700 C 276.077 46.085,276.771 46.400,277.092 46.400 C 277.414 46.400,278.154 46.732,278.738 47.138 C 279.322 47.544,280.970 48.481,282.400 49.220 C 283.830 49.958,285.752 51.066,286.672 51.681 C 287.592 52.297,288.470 52.800,288.624 52.800 C 288.778 52.800,289.795 53.440,290.883 54.222 C 291.972 55.004,293.253 55.814,293.731 56.023 C 294.209 56.232,295.410 57.032,296.400 57.802 C 297.390 58.571,298.470 59.316,298.800 59.459 C 299.130 59.601,299.850 60.107,300.400 60.584 C 300.950 61.060,301.783 61.709,302.251 62.025 C 304.335 63.432,310.760 68.485,312.351 69.968 C 313.313 70.866,314.215 71.600,314.355 71.600 C 315.012 71.600,328.355 85.564,331.935 90.000 C 334.155 92.750,336.488 95.630,337.119 96.400 C 338.113 97.613,340.584 101.091,342.804 104.400 C 344.069 106.286,347.314 111.518,349.000 114.392 C 349.660 115.517,350.785 117.367,351.500 118.505 C 352.215 119.642,352.800 120.879,352.800 121.253 C 352.800 121.627,352.935 121.993,353.100 122.067 C 353.556 122.269,355.200 125.428,355.200 126.101 C 355.200 126.426,355.534 127.121,355.942 127.646 C 356.350 128.171,356.917 129.320,357.202 130.200 C 357.488 131.080,357.959 132.166,358.249 132.613 C 358.540 133.059,359.144 134.573,359.592 135.976 C 360.040 137.379,360.568 138.723,360.764 138.963 C 360.961 139.204,361.325 140.210,361.573 141.200 C 361.822 142.190,362.362 143.810,362.775 144.800 C 363.663 146.931,366.214 155.201,366.599 157.200 C 366.748 157.970,367.225 159.770,367.659 161.200 C 368.093 162.630,368.623 165.330,368.837 167.200 C 369.051 169.070,369.387 171.140,369.582 171.800 C 370.289 174.180,370.781 177.056,370.986 180.000 C 371.428 186.352,371.710 188.609,372.092 188.851 C 372.694 189.232,372.672 210.688,372.070 211.290 C 371.811 211.549,371.600 212.489,371.599 213.380 C 371.598 216.270,370.458 225.701,369.639 229.600 C 369.200 231.690,368.725 234.390,368.582 235.600 C 368.440 236.810,368.005 238.700,367.616 239.800 C 367.227 240.900,366.680 243.060,366.401 244.600 C 366.123 246.140,365.754 247.580,365.581 247.800 C 365.409 248.020,364.791 249.896,364.209 251.969 C 363.626 254.042,362.890 256.239,362.574 256.849 C 362.258 257.460,362.000 258.234,362.000 258.568 C 362.000 258.903,361.550 260.160,361.000 261.363 C 360.450 262.565,360.000 263.827,360.000 264.168 C 360.000 265.614,349.243 287.204,348.358 287.533 C 348.161 287.607,348.000 287.941,348.000 288.276 C 348.000 288.611,347.499 289.541,346.888 290.342 C 346.276 291.144,345.526 292.295,345.220 292.900 C 344.915 293.505,344.515 294.000,344.332 294.000 C 344.150 294.000,344.000 294.194,344.000 294.432 C 344.000 294.963,341.720 298.458,338.932 302.200 C 337.784 303.740,336.340 305.683,335.723 306.518 C 331.902 311.686,317.453 326.865,312.400 331.020 C 310.970 332.196,308.585 334.157,307.100 335.379 C 305.614 336.600,304.276 337.600,304.125 337.600 C 303.975 337.600,303.480 337.948,303.026 338.374 C 301.404 339.894,294.249 344.800,293.655 344.800 C 293.441 344.800,293.207 344.949,293.133 345.131 C 292.994 345.477,288.100 348.800,287.730 348.800 C 287.612 348.800,286.770 349.302,285.858 349.916 C 283.920 351.221,269.812 358.400,269.187 358.400 C 268.953 358.400,268.005 358.772,267.081 359.226 C 266.156 359.680,264.590 360.323,263.600 360.653 C 262.610 360.984,261.080 361.576,260.200 361.968 C 259.320 362.360,256.440 363.353,253.800 364.175 C 251.160 364.997,248.460 365.910,247.800 366.203 C 247.140 366.497,245.160 367.011,243.400 367.346 C 241.640 367.681,239.421 368.232,238.470 368.570 C 237.518 368.909,235.223 369.405,233.370 369.673 C 231.516 369.941,230.000 370.304,230.000 370.480 C 230.000 370.656,229.586 370.800,229.080 370.800 C 228.574 370.800,227.935 371.025,227.660 371.300 C 226.929 372.031,171.144 372.031,170.900 371.300 C 170.808 371.025,170.298 370.800,169.767 370.800 C 169.235 370.800,168.800 370.652,168.800 370.472 C 168.800 370.292,167.201 369.931,165.248 369.671 C 163.294 369.411,160.909 368.916,159.948 368.570 C 158.986 368.225,157.030 367.705,155.600 367.415 C 154.170 367.125,151.920 366.520,150.600 366.071 C 149.280 365.622,147.390 365.030,146.400 364.756 C 145.410 364.481,143.932 363.929,143.116 363.528 C 142.300 363.128,141.259 362.800,140.803 362.800 C 140.347 362.800,139.124 362.372,138.087 361.849 C 137.049 361.326,135.582 360.765,134.827 360.601 C 134.071 360.438,132.241 359.696,130.759 358.952 C 129.277 358.208,127.854 357.600,127.595 357.600 C 127.337 357.600,126.669 357.240,126.109 356.800 C 125.550 356.360,124.783 356.000,124.406 356.000 C 124.029 356.000,122.928 355.463,121.960 354.807 C 120.992 354.151,119.896 353.611,119.524 353.607 C 119.152 353.603,118.733 353.416,118.594 353.191 C 118.455 352.966,117.320 352.238,116.071 351.572 C 114.822 350.907,112.810 349.747,111.600 348.995 C 110.390 348.244,109.040 347.460,108.600 347.255 C 107.764 346.864,104.464 344.668,99.923 341.480 C 98.451 340.446,97.132 339.600,96.993 339.600 C 96.775 339.600,94.542 337.799,90.259 334.167 C 89.631 333.635,89.037 333.200,88.939 333.200 C 87.938 333.200,73.019 318.590,68.890 313.567 C 60.811 303.738,57.399 299.106,52.930 291.900 C 52.419 291.075,51.574 289.725,51.052 288.900 C 48.400 284.702,41.086 270.424,40.641 268.574 C 40.486 267.928,39.828 266.286,39.179 264.925 C 38.531 263.564,38.000 262.252,38.000 262.009 C 38.000 261.767,37.664 260.900,37.254 260.084 C 36.844 259.268,36.280 257.610,36.000 256.400 C 35.720 255.190,35.177 253.570,34.792 252.800 C 34.407 252.030,33.878 250.320,33.617 249.000 C 33.355 247.680,32.818 245.700,32.424 244.600 C 32.030 243.500,31.584 241.880,31.433 241.000 C 31.282 240.120,30.734 237.600,30.214 235.400 C 29.694 233.200,29.047 229.735,28.776 227.700 C 28.506 225.665,28.156 224.000,28.001 224.000 C 26.408 224.000,26.379 179.496,27.971 177.401 C 28.138 177.181,28.502 175.380,28.779 173.400 C 29.055 171.420,29.618 168.517,30.030 166.950 C 30.441 165.382,30.979 162.802,31.225 161.216 C 31.471 159.631,32.090 157.134,32.601 155.667 C 33.112 154.200,33.665 152.280,33.828 151.400 C 33.992 150.520,34.431 149.257,34.804 148.594 C 35.176 147.930,35.603 146.573,35.752 145.578 C 35.902 144.582,36.455 142.916,36.982 141.875 C 37.509 140.834,38.066 139.401,38.219 138.691 C 38.373 137.981,38.926 136.551,39.449 135.513 C 39.972 134.476,40.400 133.429,40.400 133.188 C 40.400 132.416,44.719 123.449,47.427 118.600 C 48.165 117.280,49.054 115.572,49.403 114.805 C 49.752 114.038,50.360 113.048,50.754 112.605 C 51.148 112.162,51.696 111.228,51.972 110.529 C 52.248 109.830,52.817 108.947,53.237 108.567 C 53.656 108.187,54.000 107.662,54.000 107.400 C 54.000 107.138,54.353 106.604,54.785 106.214 C 55.216 105.823,55.940 104.792,56.394 103.922 C 57.569 101.667,62.792 94.646,66.303 90.600 C 70.859 85.351,76.774 78.887,78.361 77.424 C 79.330 76.531,81.640 74.360,83.496 72.600 C 85.352 70.840,87.047 69.336,87.262 69.258 C 87.478 69.179,88.506 68.330,89.548 67.371 C 91.298 65.759,92.631 64.713,95.200 62.934 C 95.750 62.554,97.321 61.378,98.691 60.321 C 100.062 59.264,101.270 58.400,101.376 58.400 C 101.482 58.400,103.022 57.410,104.799 56.201 C 106.575 54.992,108.697 53.632,109.514 53.181 C 110.331 52.729,111.990 51.754,113.200 51.014 C 116.382 49.068,127.118 43.600,127.758 43.600 C 128.057 43.600,128.511 43.349,128.766 43.041 C 129.021 42.734,130.168 42.184,131.315 41.818 C 132.462 41.453,134.120 40.837,135.000 40.449 C 135.880 40.062,137.410 39.500,138.400 39.201 C 139.390 38.902,140.470 38.443,140.800 38.180 C 141.130 37.917,142.390 37.475,143.600 37.197 C 144.810 36.920,146.250 36.473,146.800 36.206 C 147.350 35.938,149.416 35.320,151.391 34.833 C 153.366 34.346,155.166 33.798,155.391 33.616 C 155.616 33.434,157.420 32.995,159.400 32.641 C 161.380 32.287,163.990 31.715,165.200 31.369 C 166.410 31.024,169.020 30.495,171.000 30.195 C 172.980 29.895,175.410 29.431,176.400 29.164 C 180.045 28.182,220.176 27.824,220.792 28.769 M55.200 155.017 C 55.200 155.561,56.087 156.672,59.000 159.774 C 59.440 160.243,62.140 163.135,65.000 166.201 C 67.860 169.268,70.740 172.346,71.400 173.041 C 72.060 173.737,74.670 176.618,77.200 179.444 C 79.730 182.269,83.343 186.206,85.229 188.191 C 87.115 190.176,89.455 192.696,90.429 193.792 C 91.403 194.888,93.910 197.600,96.000 199.819 C 98.090 202.038,100.497 204.652,101.348 205.627 C 103.793 208.428,109.062 214.197,113.200 218.605 C 115.290 220.832,119.790 225.685,123.200 229.389 C 126.610 233.094,130.840 237.688,132.600 239.598 C 134.360 241.507,137.207 244.629,138.928 246.535 C 142.856 250.887,143.149 250.919,146.274 247.327 C 147.553 245.856,150.514 242.661,152.854 240.227 C 155.194 237.792,157.778 234.990,158.597 234.000 C 159.416 233.010,161.596 230.635,163.443 228.721 C 165.289 226.808,166.800 225.140,166.800 225.015 C 166.800 224.890,168.659 222.856,170.930 220.494 C 173.202 218.132,175.857 215.302,176.830 214.205 C 178.708 212.088,184.789 205.652,186.300 204.183 C 186.795 203.702,187.200 203.161,187.200 202.980 C 187.200 202.800,188.685 201.110,190.500 199.225 C 192.315 197.340,194.414 195.078,195.164 194.199 C 195.914 193.319,198.074 190.975,199.964 188.990 C 201.854 187.004,205.380 183.228,207.800 180.599 C 210.220 177.970,212.695 175.306,213.300 174.679 C 213.905 174.052,214.400 173.463,214.400 173.371 C 214.400 173.279,215.820 171.718,217.556 169.902 C 219.291 168.086,221.163 166.060,221.715 165.400 C 222.266 164.740,224.535 162.310,226.757 160.000 C 230.535 156.072,231.574 154.400,230.237 154.400 C 229.639 154.400,224.611 156.979,223.600 157.805 C 223.270 158.074,221.560 158.973,219.800 159.802 C 218.040 160.631,216.330 161.465,216.000 161.657 C 214.104 162.755,206.923 166.000,206.388 166.000 C 206.134 166.000,205.469 166.360,204.909 166.800 C 204.350 167.240,203.601 167.606,203.246 167.613 C 202.891 167.619,201.525 168.159,200.210 168.813 C 198.896 169.466,197.499 170.000,197.106 170.000 C 196.713 170.000,195.628 170.347,194.696 170.772 C 193.763 171.197,191.740 171.943,190.200 172.431 C 188.660 172.918,186.823 173.565,186.118 173.869 C 185.413 174.172,183.793 174.613,182.518 174.848 C 181.243 175.082,179.413 175.632,178.452 176.069 C 177.490 176.506,175.323 177.003,173.635 177.173 C 171.948 177.343,170.214 177.665,169.783 177.888 C 169.020 178.283,166.356 178.711,159.000 179.623 C 157.020 179.868,154.590 180.224,153.600 180.414 C 151.125 180.887,134.169 180.622,130.000 180.045 C 128.130 179.786,125.610 179.489,124.400 179.386 C 121.552 179.143,117.849 178.449,115.686 177.752 C 114.743 177.448,113.316 177.200,112.514 177.200 C 111.198 177.200,109.670 176.838,107.400 175.990 C 106.960 175.826,105.790 175.483,104.800 175.229 C 103.810 174.975,101.920 174.407,100.600 173.968 C 99.280 173.529,97.027 172.827,95.592 172.409 C 94.158 171.991,92.448 171.369,91.792 171.027 C 91.137 170.685,90.368 170.404,90.084 170.402 C 89.800 170.401,88.900 170.065,88.084 169.655 C 87.268 169.245,85.430 168.511,84.000 168.023 C 82.570 167.535,81.130 166.912,80.800 166.639 C 80.470 166.366,79.390 165.890,78.400 165.581 C 77.410 165.273,75.990 164.611,75.244 164.110 C 74.498 163.610,73.579 163.200,73.200 163.200 C 72.821 163.200,71.849 162.750,71.038 162.200 C 70.228 161.650,69.347 161.191,69.082 161.179 C 68.817 161.168,67.222 160.403,65.538 159.479 C 55.437 153.939,55.200 153.837,55.200 155.017 " stroke="none" fill="#f6fbf9" fill-rule="evenodd"></path></g></svg>